# xmcd CD database file
#
# Track frame offsets:
#	150
#	17762
#	39812
#	52313
#	77219
#	88687
#	104515
#	118924
#	136569
#	149781
#	168971
#	183633
#	203914
#
# Disc length: 2988 seconds
#
# Revision: 0
# Processed by: cddbd v1.5.2PL0 Copyright (c) Steve Scherf et al.
# Submitted via: CDex 1.50
#
DISCID=ba0baa0d
DTITLE=Галина Хомчик и группа ГрассМейстер - Знакомая романтика
DYEAR=2003
DGENRE=Country
TTITLE0=В час далекий от рассвета
TTITLE1=Нескучный сад
TTITLE2=Осень
TTITLE3=Белый воробей
TTITLE4=Разбилась лампочка
TTITLE5=Когда закрыт аэропорт
TTITLE6=Креветка
TTITLE7=Новогодняя
TTITLE8=Спой мне
TTITLE9=Новогодняя
TTITLE10=Нескучный сад
TTITLE11=Вересковый куст
TTITLE12=Братья капитаны
EXTD=YEAR: 2003
EXTT0=
EXTT1=
EXTT2=
EXTT3=
EXTT4=
EXTT5=
EXTT6=
EXTT7=
EXTT8=
EXTT9=
EXTT10=
EXTT11=
EXTT12=
PLAYORDER=
